<svg width="46" height="46" viewBox="0 0 46 46" fill="none" xmlns="http://www.w3.org/2000/svg">
<path d="M23 0C29.1 0 34.9501 2.42321 39.2635 6.73654C43.5768 11.0499 46 16.9 46 23C46 29.1 43.5768 34.9501 39.2635 39.2635C34.9501 43.5768 29.1 46 23 46C16.9 46 11.0499 43.5768 6.73654 39.2635C2.42321 34.9501 0 29.1 0 23C0 16.9 2.42321 11.0499 6.73654 6.73654C11.0499 2.42321 16.9 0 23 0ZM23 3.75667C12.4315 3.75667 3.83333 12.3548 3.83333 23C3.8284 27.0459 5.09883 30.9905 7.46406 34.2731C9.82929 37.5556 13.169 40.0092 17.0084 41.285C17.0657 41.2936 17.1233 41.3 17.181 41.3041C17.9591 41.3424 18.2504 40.8097 18.2504 40.3459L18.2237 37.0721C12.8953 38.2337 11.7683 34.4884 11.7683 34.4884C10.8982 32.2651 9.64083 31.6749 9.64083 31.6749C7.9005 30.4789 9.77117 30.5019 9.77117 30.5019C11.1703 30.6014 12.0865 31.6059 12.4852 32.1501L12.7075 32.4876C14.4172 35.4277 17.1924 34.5804 18.285 34.0899C18.4613 32.844 18.952 31.9969 19.5001 31.5139C15.2451 31.027 10.7717 29.3749 10.7717 21.9994C10.7717 19.8989 11.5192 18.1814 12.7458 16.8321L12.6308 16.5063C12.3855 15.7281 12.0482 13.984 12.9337 11.7377L13.087 11.7108C13.5623 11.6495 15.1877 11.661 18.2044 13.7118C19.7672 13.2844 21.3799 13.0665 23 13.064C24.6291 13.0717 26.2699 13.2863 27.7993 13.7157C31.4601 11.224 33.0663 11.7377 33.0663 11.7377C34.109 14.3903 33.4497 16.3453 33.258 16.836C34.4847 18.1777 35.2244 19.8989 35.2244 21.9994C35.2244 29.3979 30.7433 31.0231 26.473 31.4984C27.163 32.0927 27.7763 33.2694 27.7763 35.0634L27.7533 40.3459C27.7533 40.8441 28.0791 41.4269 28.9916 41.285C32.8309 40.0092 36.1707 37.5556 38.536 34.2731C40.9011 30.9905 42.1716 27.0459 42.1667 23C42.1667 12.3548 33.5684 3.75667 23 3.75667Z" fill="white"/>
</svg>
